<svg xmlns="http://www.w3.org/2000/svg" viewBox="0 0 22 22"><defs><style>.cls-1{fill:#fff;}</style></defs><title>button-play</title><g id="Layer_2" data-name="Layer 2"><g id="Layer_1-2" data-name="Layer 1"><path class="cls-1" d="M9.23,6.8a.53.53,0,0,0-.29-.09.55.55,0,0,0-.28.08.54.54,0,0,0-.28.48v7.46a.55.55,0,0,0,.31.5.55.55,0,0,0,.58-.06L14.66,11a.58.58,0,0,0,.21-.47.55.55,0,0,0-.26-.45Z"/><path class="cls-1" d="M11,0A11,11,0,1,0,22,11,11,11,0,0,0,11,0Zm4.27,11.82L9.88,16a1.5,1.5,0,0,1-1.63.16,1.54,1.54,0,0,1-.87-1.39V7.27A1.55,1.55,0,0,1,9.75,6l5.38,3.31a1.53,1.53,0,0,1,.74,1.24A1.55,1.55,0,0,1,15.27,11.82Z"/></g></g></svg>